<svg width="76" height="76" viewBox="0 0 76 76" fill="none" xmlns="http://www.w3.org/2000/svg">
<path d="M68.8529 43.659C73.3792 42.0525 76.1208 37.452 75.3796 32.7065C74.6379 27.9615 70.6238 24.4161 65.8231 24.2672C69.9144 20.6906 70.3958 14.4998 66.9071 10.3338C63.4179 6.16739 57.2388 5.55461 53.0001 8.95494V1.75096C53.0001 1.06103 52.4405 0.500977 51.7501 0.500977H24.2506C23.5602 0.500977 23.0006 1.06103 23.0006 1.75096V8.97349C18.7673 5.56339 12.5833 6.16836 9.09065 10.3333C5.59803 14.4988 6.08045 20.693 10.1766 24.2672C5.37636 24.4161 1.36226 27.9615 0.620576 32.7065C-0.121111 37.452 2.62054 42.0525 7.14684 43.659C3.49602 46.2976 2.06147 51.0529 3.64543 55.2696C5.22841 59.4863 9.4383 62.1225 13.9236 61.7055C18.4084 61.2886 22.0602 57.9219 22.839 53.4855C24.2564 55.461 26.002 57.1793 28.0005 58.5655V65.4999H16.7507C13.3005 65.5043 10.5042 68.2997 10.5008 71.7498V74.2498C10.5008 74.9402 11.0603 75.4998 11.7508 75.4998H64.2499C64.9403 75.4998 65.4999 74.9402 65.4999 74.2498V71.7498C65.4955 68.2997 62.6997 65.5043 59.25 65.4999H48.0002V58.5655C49.9977 57.1793 51.7438 55.461 53.1612 53.4855C53.9322 57.9327 57.5874 61.312 62.0815 61.7329C66.5751 62.1543 70.7947 59.5127 72.3777 55.2852C73.9617 51.0587 72.5174 46.2952 68.8529 43.659ZM72.9998 34.2504C72.9998 38.3924 69.6414 41.7503 65.4999 41.7503C61.3574 41.7503 58 38.3924 58 34.2504C58 30.1089 61.3574 26.7505 65.4999 26.7505C69.64 26.7549 72.9954 30.1099 72.9998 34.2504ZM56.6773 29.5532C56.2769 28.2935 55.7813 27.0669 55.1949 25.8834C56.3716 26.4063 57.6387 26.6959 58.9258 26.7344C58.0127 27.5308 57.2505 28.4859 56.6773 29.5532ZM59.25 9.25083C63.2328 9.24595 66.5258 12.3563 66.7469 16.3342C66.9681 20.3117 64.0419 23.7682 60.082 24.2057C56.1226 24.6427 52.5118 21.9083 51.86 17.9782C52.5016 17.9275 52.9962 17.3943 53.0001 16.7507V12.6263C54.3765 10.5145 56.729 9.24449 59.25 9.25083ZM50.5001 15.5007H44.2502V3.00094H50.5001V15.5007ZM41.7503 3.00094V15.5007H34.2504V3.00094H41.7503ZM19.3224 29.5532C18.7487 28.4854 17.9865 27.5308 17.0729 26.7344C18.36 26.6954 19.6271 26.4063 20.8038 25.8834C20.2179 27.0674 19.7228 28.2945 19.3224 29.5532ZM25.5005 3.00094H31.7504V15.5007H25.5005V3.00094ZM9.25081 16.7507C9.24544 13.4388 11.4158 10.5164 14.5881 9.56431C17.7609 8.61266 21.1818 9.85776 23.0006 12.6263V16.7507C23.0035 17.3943 23.4991 17.9275 24.1402 17.9782C23.4786 21.8053 20.0045 24.4933 16.134 24.1739C12.2639 23.8551 9.27717 20.6344 9.25081 16.7507ZM3.00091 34.2504C3.00091 30.1089 6.35828 26.7505 10.5008 26.7505C14.6423 26.7505 18.0007 30.1089 18.0007 34.2504C18.0007 38.3924 14.6423 41.7503 10.5008 41.7503C6.36023 41.7464 3.00433 38.391 3.00091 34.2504ZM13.0007 59.25C8.85824 59.25 5.50087 55.8922 5.50087 51.7501C5.50087 47.6086 8.85824 44.2503 13.0007 44.2503C17.1423 44.2503 20.5006 47.6086 20.5006 51.7501C20.4962 55.8907 17.1408 59.2461 13.0007 59.25ZM16.3537 42.3421C17.0124 41.8651 17.612 41.3109 18.1379 40.6917C18.2272 41.6194 18.3605 42.5325 18.5387 43.4309C17.8586 42.9793 17.1242 42.6136 16.3537 42.3421ZM46.0798 56.8419C45.7185 57.0713 45.4997 57.4698 45.5002 57.8975V66.7499C45.5002 67.4403 46.0598 67.9999 46.7502 67.9999H59.25C61.3208 67.9999 62.9999 69.679 62.9999 71.7498V72.9998H13.0007V71.7498C13.0007 69.679 14.6789 67.9999 16.7507 67.9999H29.2505C29.9409 67.9999 30.5005 67.4403 30.5005 66.7499V57.8926C30.5005 57.4644 30.2817 57.066 29.9199 56.8365C24.1099 53.149 20.5006 45.9319 20.5006 38.0004C20.3747 31.5932 22.9244 25.4224 27.5352 20.9718C27.1094 23.7135 26.8467 26.4781 26.7505 29.2505C26.7505 29.9409 27.3101 30.5005 28.0005 30.5005C28.6909 30.5005 29.2505 29.9409 29.2505 29.2505C29.4194 25.7784 29.7954 22.319 30.3755 18.8908C30.9321 18.5593 31.5073 18.2619 32.1 18.0007H32.7905C32.2016 21.7248 31.8535 25.4825 31.7504 29.2505C31.7504 29.9409 32.31 30.5005 33.0004 30.5005C33.6908 30.5005 34.2504 29.9409 34.2504 29.2505C34.3652 25.482 34.7221 21.7238 35.3202 18.0007H36.7504V29.2505C36.7504 29.9409 37.3099 30.5005 38.0003 30.5005C38.6908 30.5005 39.2503 29.9409 39.2503 29.2505V18.0007H40.6805C41.2776 21.7238 41.6351 25.482 41.7503 29.2505C41.7503 29.9409 42.3098 30.5005 43.0003 30.5005C43.6907 30.5005 44.2502 29.9409 44.2502 29.2505C44.1462 25.4825 43.7991 21.7248 43.2102 18.0007H43.8987C44.4924 18.2619 45.0701 18.5593 45.6277 18.8908C46.2068 22.319 46.5818 25.7784 46.7502 29.2505C46.7502 29.9409 47.3098 30.5005 48.0002 30.5005C48.6906 30.5005 49.2502 29.9409 49.2502 29.2505C49.153 26.4781 48.8913 23.7135 48.465 20.9718C53.0763 25.4224 55.6251 31.5932 55.5001 38.0004C55.5001 45.9319 51.8898 53.149 46.0798 56.8365V56.8419ZM57.8618 40.6917C58.3887 41.3109 58.9873 41.8651 59.646 42.3421C58.876 42.6136 58.1421 42.9793 57.461 43.4309C57.6387 42.533 57.7725 41.6199 57.8618 40.6917ZM62.9999 59.25C58.8574 59.25 55.5001 55.8922 55.5001 51.7501C55.5001 47.6086 58.8574 44.2503 62.9999 44.2503C67.1415 44.2503 70.4998 47.6086 70.4998 51.7501C70.4954 55.8907 67.14 59.2461 62.9999 59.25Z" fill="#69B99D"/>
</svg>
