<svg width="16" height="16" viewBox="0 0 16 16" fill="none" xmlns="http://www.w3.org/2000/svg">
<path d="M1.75 9.73877C4.51123 9.73877 6.75 11.9775 6.75 14.7388C6.75 15.4292 7.30957 15.9888 8 15.9888C8.69043 15.9888 9.25 15.4292 9.25 14.7388C9.25 11.9775 11.4888 9.73877 14.25 9.73877C14.9404 9.73877 15.5 9.1792 15.5 8.48877C15.5 7.79834 14.9404 7.23877 14.25 7.23877C11.4888 7.23877 9.25 5.00049 9.25 2.23877C9.25 1.54834 8.69043 0.98877 8 0.98877C7.30957 0.98877 6.75 1.54834 6.75 2.23877C6.75 5.00049 4.51123 7.23877 1.75 7.23877C1.05957 7.23877 0.5 7.79834 0.5 8.48877C0.5 9.1792 1.05957 9.73877 1.75 9.73877ZM8 6.37647C8.55664 7.21436 9.2749 7.93262 10.1123 8.48877C9.2749 9.04541 8.55664 9.76367 8 10.6021C7.44336 9.76367 6.7251 9.04541 5.8877 8.48877C6.7251 7.93262 7.44336 7.21436 8 6.37647Z" fill="#69B99D"/>
</svg>
