<svg width="8" height="8" viewBox="0 0 8 8" fill="none" xmlns="http://www.w3.org/2000/svg">
<path d="M4.00002 7.98876C5.51662 7.98925 6.8838 7.07567 7.46485 5.67431C8.04542 4.27343 7.72511 2.66064 6.65236 1.58789C5.16798 0.172852 2.83401 0.172852 1.34964 1.58789C0.278352 2.65967 -0.0429358 4.27246 0.537629 5.67333C1.11722 7.0747 2.48391 7.98827 4.00002 7.98876ZM3.11623 3.35498C3.60451 2.86718 4.39553 2.86718 4.88381 3.35498C5.3716 3.84326 5.3716 4.63476 4.88381 5.12255C4.38967 5.5957 3.61037 5.5957 3.11623 5.12255C2.62844 4.63476 2.62844 3.84326 3.11623 3.35498Z" fill="#69B99D"/>
</svg>
