<svg width="22" height="22" viewBox="0 0 22 22" fill="none" xmlns="http://www.w3.org/2000/svg">
<path fill-rule="evenodd" clip-rule="evenodd" d="M5.99999 2C3.79085 2 1.99999 3.79086 1.99999 6V16C1.99999 18.2091 3.79085 20 5.99999 20H16C18.2091 20 20 18.2091 20 16V6C20 3.79086 18.2091 2 16 2H5.99999ZM-7.62939e-06 6C-7.62939e-06 2.68629 2.68628 0 5.99999 0H16C19.3137 0 22 2.68629 22 6V16C22 19.3137 19.3137 22 16 22H5.99999C2.68628 22 -7.62939e-06 19.3137 -7.62939e-06 16V6Z" fill="#69B99D"/>
</svg>
