<svg width="24" height="18" viewBox="0 0 24 18" fill="none" xmlns="http://www.w3.org/2000/svg">
<path fill-rule="evenodd" clip-rule="evenodd" d="M11.9999 0C11.9999 0 12 0 12 1L12 2L11.9245 2.00011C11.8745 2.00022 11.8006 2.00044 11.7057 2.00089C11.516 2.00178 11.2425 2.00356 10.9088 2.00713C10.2411 2.01427 9.33398 2.02855 8.37471 2.05706C7.41384 2.08561 6.40861 2.12821 5.54213 2.19141C4.65402 2.25619 3.99413 2.33761 3.66536 2.42419C3.36666 2.51 3.09559 2.67253 2.87915 2.89566C2.66801 3.11333 2.51611 3.38119 2.43762 3.67375C2.13808 5.34737 1.99159 7.04482 1.99999 8.74506L2.00005 8.75628C1.98933 10.4635 2.13471 12.1681 2.43448 13.8487C2.52111 14.1264 2.67454 14.3788 2.88158 14.5837C3.0985 14.7984 3.36695 14.9537 3.66114 15.0347C3.98847 15.1217 4.6502 15.2035 5.54213 15.2686C6.40861 15.3318 7.41384 15.3744 8.37471 15.4029C9.33398 15.4314 10.2411 15.4457 10.9088 15.4529C11.2425 15.4564 11.516 15.4582 11.7057 15.4591C11.8006 15.4596 11.8745 15.4598 11.9245 15.4599H12.0755C12.1255 15.4598 12.1994 15.4596 12.2943 15.4591C12.4841 15.4582 12.7575 15.4564 13.0912 15.4529C13.759 15.4457 14.666 15.4314 15.6253 15.4029C16.5862 15.3744 17.5914 15.3318 18.4579 15.2686C19.346 15.2038 20.0059 15.1224 20.3347 15.0358C20.6334 14.95 20.9044 14.7875 21.1209 14.5643C21.332 14.3467 21.4839 14.0788 21.5624 13.7863C21.8596 12.1253 22.0061 10.4409 22 8.75359L22 8.74372C22.0107 7.03058 21.8643 5.32008 21.5624 3.63377C21.4839 3.3412 21.332 3.07333 21.1209 2.85566C20.9069 2.63509 20.6396 2.47373 20.3449 2.38717C20.005 2.3072 19.3426 2.23348 18.4642 2.17498C17.5959 2.11716 16.5893 2.07822 15.6279 2.05213C14.6679 2.02609 13.7602 2.01304 13.0921 2.00651C12.7582 2.00325 12.4846 2.00162 12.2947 2.00081L12.0757 2.0001L12 2L12 1C12 0 11.9999 0 11.9999 0L12.0797 0.000104606C12.1312 0.000208557 12.2067 0.000415921 12.3033 0.000829518C12.4963 0.00165659 12.7737 0.00330883 13.1116 0.00661021C13.7873 0.0132093 14.7071 0.0264141 15.6821 0.0528679C16.6557 0.079282 17.6916 0.119094 18.5971 0.179398C19.4767 0.237978 20.3115 0.320168 20.8372 0.448543C20.849 0.451407 20.8606 0.454482 20.8722 0.457769C21.5123 0.638862 22.0933 0.985664 22.5565 1.46315C23.0196 1.94063 23.3486 2.53189 23.5101 3.17719C23.5155 3.19879 23.5202 3.22057 23.5241 3.24249C23.852 5.06021 24.0113 6.90432 24 8.75133C24.0063 10.5707 23.847 12.3869 23.5241 14.1774C23.5202 14.1994 23.5155 14.2212 23.5101 14.2428C23.3486 14.8881 23.0196 15.4794 22.5565 15.9569C22.0933 16.4343 21.5123 16.7811 20.8722 16.9622L20.8584 16.966C20.3247 17.1088 19.4827 17.1992 18.6034 17.2633C17.6961 17.3295 16.6588 17.3731 15.6847 17.4021C14.709 17.4311 13.7886 17.4455 13.1126 17.4528C12.7744 17.4564 12.4969 17.4582 12.3037 17.4591C12.2071 17.4595 12.1315 17.4598 12.0799 17.4599L12.0005 17.46L11.9201 17.4599C11.8685 17.4598 11.7929 17.4595 11.6963 17.4591C11.5031 17.4582 11.2256 17.4564 10.8874 17.4528C10.2115 17.4455 9.29103 17.4311 8.3153 17.4021C7.34118 17.3731 6.3039 17.3295 5.39664 17.2633C4.51733 17.1992 3.67529 17.1088 3.14165 16.966L3.13609 16.9646C2.50901 16.793 1.9368 16.4626 1.47472 16.0052C1.01264 15.5479 0.676315 14.9792 0.498248 14.3539C0.489209 14.3222 0.481747 14.29 0.475889 14.2575C0.14805 12.44 -0.0112584 10.5961 -7.92317e-06 8.74933C-0.00872218 6.91636 0.150573 5.08643 0.475881 3.28253C0.479836 3.2606 0.484522 3.23881 0.489932 3.21719C0.651451 2.57189 0.980402 1.98063 1.44356 1.50315C1.90672 1.02566 2.48769 0.678861 3.12777 0.497769L3.14165 0.493952C3.67529 0.351232 4.51733 0.260847 5.39664 0.196712C6.3039 0.130537 7.34118 0.0868881 8.3153 0.0579413C9.29103 0.0289468 10.2115 0.0144762 10.8874 0.00724471C11.2256 0.00362682 11.5031 0.00181603 11.6963 0.000909448C11.7929 0.000456095 11.8685 0.000228763 11.9201 0.000114739L11.9999 0Z" fill="#69B99D"/>
</svg>
