<svg width="11" height="11" viewBox="0 0 11 11" fill="none" xmlns="http://www.w3.org/2000/svg">
<path fill-rule="evenodd" clip-rule="evenodd" d="M5.48331 2.98924C4.85913 2.89668 4.22165 3.0033 3.66155 3.29392C3.10145 3.58455 2.64725 4.04438 2.36356 4.60802C2.07986 5.17166 1.98112 5.81041 2.08137 6.4334C2.18161 7.0564 2.47575 7.63192 2.92194 8.07811C3.36814 8.5243 3.94366 8.81844 4.56665 8.91869C5.18965 9.01894 5.82839 8.92019 6.39203 8.6365C6.95567 8.3528 7.41551 7.8986 7.70613 7.3385C7.99676 6.7784 8.10337 6.14093 8.01081 5.51674C7.9164 4.88005 7.61972 4.2906 7.16459 3.83547C6.70945 3.38034 6.12001 3.08366 5.48331 2.98924ZM2.74041 1.51868C3.67391 1.0343 4.73637 0.85661 5.77668 1.01087C6.83783 1.16823 7.82024 1.6627 8.5788 2.42126C9.33735 3.17981 9.83183 4.16222 9.98918 5.22337C10.1434 6.26368 9.96575 7.32614 9.48138 8.25964C8.99701 9.19314 8.23061 9.95014 7.29121 10.423C6.35181 10.8958 5.28724 11.0604 4.24891 10.8933C3.21059 10.7262 2.25138 10.236 1.50773 9.49233C0.764078 8.74867 0.273847 7.78947 0.106766 6.75114C-0.0603148 5.71281 0.104263 4.64824 0.577089 3.70884C1.04992 2.76944 1.80691 2.00305 2.74041 1.51868Z" fill="#69B99D"/>
</svg>
