<svg width="31" height="76" viewBox="0 0 31 76" fill="none" xmlns="http://www.w3.org/2000/svg">
<path d="M4.70843 75.375H22.2085C24.2793 75.375 25.9585 73.6958 25.9585 71.625V24.125C25.9555 21.6426 24.4834 19.398 22.2085 18.4048V14.125C22.2085 13.4346 21.6489 12.875 20.9584 12.875H17.2084V7.875H29.7085C30.2138 7.875 30.6699 7.57031 30.8632 7.10352C31.0566 6.63672 30.9492 6.09863 30.5923 5.74121L28.0922 3.24121C27.9013 3.05029 27.6533 2.92627 27.3862 2.88721L9.88617 0.387207C9.82708 0.379395 9.76751 0.375 9.70843 0.375H4.70843C4.01799 0.375 3.45842 0.93457 3.45842 1.625V6.625C3.45842 7.31543 4.01799 7.875 4.70843 7.875H9.70843V12.875H5.95843C5.268 12.875 4.70843 13.4346 4.70843 14.125V18.4048C2.43352 19.398 0.961349 21.6426 0.95842 24.125V71.625C0.95842 73.6958 2.63762 75.375 4.70843 75.375ZM23.4585 30.375H3.45842V27.875H23.4585V30.375ZM23.4585 57.875H3.45842V32.875H23.4585V57.875ZM22.2085 72.875H4.70843C4.01799 72.875 3.45842 72.3154 3.45842 71.625V60.375H23.4585V71.625C23.4585 72.3154 22.8989 72.875 22.2085 72.875ZM5.95843 2.875H9.62005L26.6196 5.30371L26.6909 5.375H5.95843V2.875ZM12.2084 7.875H14.7084V12.875H12.2084V7.875ZM7.20843 15.375H19.7084V17.875H7.20843V15.375ZM7.20843 20.375H19.7084C21.7793 20.375 23.4585 22.0542 23.4585 24.125V25.375H3.45842V24.125C3.45842 22.0542 5.13763 20.375 7.20843 20.375Z" fill="#69B99D"/>
</svg>
