<svg width="20" height="20" viewBox="0 0 20 20" fill="none" xmlns="http://www.w3.org/2000/svg">
<path fill-rule="evenodd" clip-rule="evenodd" d="M4.78172 2.24175C4.59774 2.08353 4.36249 1.9976 4.11984 1.99999L4.11 2.00008V2.00004H1.11062C0.971897 2.00021 0.83473 2.02925 0.707836 2.0853C0.580843 2.14139 0.466922 2.22331 0.373324 2.32585C0.279726 2.42838 0.208504 2.54928 0.164191 2.68085C0.120579 2.81033 0.103973 2.94736 0.115369 3.08347C0.428114 6.01503 1.4263 8.83191 3.02928 11.3063L3.03404 11.3137L3.03401 11.3137C4.49061 13.606 6.43405 15.5494 8.72632 17.006L8.73412 17.011L8.7341 17.011C11.1969 18.6082 13.9997 19.606 16.9176 19.9248C17.0538 19.936 17.1909 19.9192 17.3204 19.8754C17.4523 19.8308 17.5734 19.7592 17.676 19.665C17.7787 19.5709 17.8605 19.4564 17.9163 19.3288C17.972 19.2012 18.0006 19.0633 18 18.9241L18 18.92V15.92C18 15.9118 18.0001 15.9035 18.0003 15.8952C18.0064 15.65 17.9221 15.4111 17.7636 15.224C17.6058 15.0378 17.3854 14.9157 17.1439 14.8807C16.1109 14.7441 15.0966 14.4912 14.1204 14.1269L14.1181 14.1261C13.9392 14.0588 13.7447 14.0443 13.5577 14.0841C13.3715 14.1239 13.2005 14.2159 13.0648 14.3495L11.7971 15.6171C11.4788 15.9355 10.987 16.0018 10.5957 15.7793C7.93569 14.2668 5.73323 12.0643 4.2207 9.40433C3.99819 9.01301 4.06458 8.52124 4.38289 8.20293L5.65053 6.93529C5.78411 6.7996 5.87618 6.62858 5.9159 6.44234C5.95578 6.25535 5.94122 6.06086 5.87395 5.8819L5.8731 5.87964C5.50883 4.90343 5.25596 3.88922 5.11931 2.85627C5.08464 2.61744 4.96476 2.39916 4.78172 2.24175ZM4.10557 3.59954e-05C4.83161 -0.00580091 5.53521 0.251879 6.0858 0.725383C6.63775 1.20006 6.99827 1.85925 7.10016 2.58008L7.10146 2.58927L7.10141 2.58928C7.21813 3.47421 7.43453 4.34309 7.74651 5.17939C7.94793 5.71594 7.99146 6.29897 7.87191 6.8595C7.75228 7.42044 7.47435 7.93534 7.07105 8.34318L7.06712 8.34715L7.06711 8.34714L6.35001 9.06423C7.52587 10.9089 9.09115 12.4742 10.9358 13.65L11.6529 12.9329L11.6569 12.929C12.0647 12.5257 12.5796 12.2478 13.1405 12.1281C13.7011 12.0086 14.2841 12.0521 14.8206 12.2535C15.6569 12.5655 16.5258 12.7819 17.4108 12.8986L17.4197 12.8998L17.4197 12.8998C18.1483 13.0026 18.8138 13.3696 19.2895 13.9311C19.7623 14.4891 20.0148 15.2004 20 15.9312V18.918" fill="#69B99D"/>
</svg>
