<svg width="38" height="76" viewBox="0 0 38 76" fill="none" xmlns="http://www.w3.org/2000/svg">
<path d="M1.47192 6.83008L6.45824 64.1773V69.125C6.46264 72.5752 9.25805 75.3706 12.7082 75.375H25.2082C28.6584 75.3706 31.4538 72.5752 31.4582 69.125V64.1773L36.4441 6.83008L37.6711 1.92871C37.7644 1.55518 37.6809 1.15918 37.4436 0.855957C37.2068 0.552734 36.8435 0.375 36.4582 0.375H1.45825C1.07299 0.375 0.710199 0.552734 0.472406 0.855957C0.23559 1.15918 0.152093 1.55518 0.245355 1.92871L1.47192 6.83008ZM30.2585 49.125H7.65844L7.00707 41.625H30.9094L30.2585 49.125ZM30.0412 51.625L29.0622 62.875H8.85473L7.87572 51.625H30.0412ZM14.5832 65.375H23.3332V66.625C23.3332 67.3154 22.7737 67.875 22.0832 67.875H15.8332C15.1428 67.875 14.5832 67.3154 14.5832 66.625V65.375ZM28.9582 69.125C28.9582 71.1958 27.279 72.875 25.2082 72.875H12.7082C10.6374 72.875 8.95824 71.1958 8.95824 69.125V65.375H12.0832V66.625C12.0832 68.6958 13.7624 70.375 15.8332 70.375H22.0832C24.154 70.375 25.8332 68.6958 25.8332 66.625V65.375H28.9582V69.125ZM31.1267 39.125H6.78979L4.07201 7.875H33.845L31.1267 39.125ZM34.8567 2.875L34.2317 5.375H3.68432L3.05932 2.875H34.8567Z" fill="#69B99D"/>
</svg>
